<svg xmlns="http://www.w3.org/2000/svg" xmlns:xlink="http://www.w3.org/1999/xlink" preserveAspectRatio="xMidYMid" width="18" height="20" viewBox="0 0 18 20">
  <defs>
    <style>
      .cls-1 {
        fill: #fff;
        fill-rule: evenodd;
      }
    </style>
  </defs>
  <path d="M18.003,19.096 C18.003,19.597 17.599,20.004 17.100,20.004 C16.602,20.004 16.198,19.597 16.198,19.096 L16.197,19.085 L16.172,19.085 C15.744,15.567 12.820,12.830 9.234,12.716 C9.156,12.719 9.080,12.728 9.002,12.728 C8.924,12.728 8.849,12.719 8.772,12.716 C5.185,12.830 2.262,15.567 1.834,19.085 L1.812,19.085 L1.813,19.096 C1.813,19.597 1.408,20.004 0.910,20.004 C0.411,20.004 0.007,19.597 0.007,19.096 C0.007,19.096 -0.009,18.863 0.064,18.676 C0.517,15.497 2.596,12.848 5.434,11.619 C3.767,10.472 2.672,8.546 2.672,6.361 C2.672,2.845 5.506,-0.006 9.002,-0.006 C12.498,-0.006 15.332,2.845 15.332,6.361 C15.332,8.545 14.238,10.471 12.572,11.617 C15.438,12.857 17.529,15.545 17.956,18.763 C17.993,18.893 18.003,19.096 18.003,19.096 ZM13.522,6.363 C13.522,3.851 11.498,1.815 9.001,1.815 C6.503,1.815 4.479,3.851 4.479,6.363 C4.479,8.874 6.503,10.910 9.001,10.910 C11.498,10.910 13.522,8.874 13.522,6.363 Z" class="cls-1"/>
</svg>
