<svg xmlns="http://www.w3.org/2000/svg" xmlns:xlink="http://www.w3.org/1999/xlink" preserveAspectRatio="xMidYMid" width="56" height="52" viewBox="0 0 56 52">
  <defs>
    <style>
      .cls-1 {
        fill: #1782ed;
        fill-rule: evenodd;
      }
    </style>
  </defs>
  <path d="M49.000,52.000 L7.000,52.000 C3.134,52.000 -0.000,48.896 -0.000,45.067 L-0.000,26.000 L17.500,26.000 L21.247,26.000 C21.095,26.554 21.000,27.131 21.000,27.734 C21.000,31.563 24.134,34.667 28.000,34.667 C31.866,34.667 35.000,31.563 35.000,27.734 C35.000,27.131 34.905,26.554 34.753,26.000 L36.750,26.000 L56.000,26.000 L56.000,45.067 C56.000,48.896 52.866,52.000 49.000,52.000 ZM31.500,27.733 C31.500,29.648 29.933,31.200 28.000,31.200 C26.067,31.200 24.500,29.648 24.500,27.733 C24.500,27.099 24.685,26.512 24.985,26.000 L31.015,26.000 C31.315,26.512 31.500,27.099 31.500,27.733 ZM17.500,22.533 L-0.000,22.533 L-0.000,13.867 C-0.000,10.038 3.134,6.934 7.000,6.934 L17.500,6.934 L17.500,3.467 C17.500,1.552 19.067,0.000 21.000,0.000 L35.000,0.000 C36.933,0.000 38.500,1.552 38.500,3.467 L38.500,6.934 L49.000,6.934 C52.866,6.934 56.000,10.038 56.000,13.867 L56.000,22.533 L36.750,22.533 L17.500,22.533 ZM35.000,5.200 C35.000,4.243 34.217,3.467 33.250,3.467 L22.750,3.467 C21.783,3.467 21.000,4.243 21.000,5.200 L21.000,6.934 C22.039,6.934 33.961,6.934 35.000,6.934 L35.000,5.200 Z" class="cls-1"/>
</svg>
