<svg xmlns="http://www.w3.org/2000/svg" xmlns:xlink="http://www.w3.org/1999/xlink" preserveAspectRatio="xMidYMid" width="56" height="56" viewBox="0 0 56 56">
  <defs>
    <style>
      .cls-1 {
        fill: #00bf5b;
        fill-rule: evenodd;
      }
    </style>
  </defs>
  <path d="M50.750,56.000 L50.750,52.500 C50.750,51.533 49.966,50.750 49.000,50.750 L47.250,50.750 C46.283,50.750 45.500,51.533 45.500,52.500 L45.500,56.000 L42.000,56.000 L42.000,52.500 C42.000,51.533 41.216,50.750 40.250,50.750 L38.500,50.750 C37.533,50.750 36.750,51.533 36.750,52.500 L36.750,56.000 L31.500,56.000 L31.500,17.500 C31.500,17.500 46.918,26.394 53.314,29.965 C56.000,31.629 56.000,31.864 56.000,33.578 C56.000,40.469 56.000,56.000 56.000,56.000 L50.750,56.000 ZM42.000,35.000 C42.000,34.033 41.216,33.250 40.250,33.250 L38.500,33.250 C37.533,33.250 36.750,34.033 36.750,35.000 L36.750,36.750 C36.750,37.716 37.533,38.500 38.500,38.500 L40.250,38.500 C41.216,38.500 42.000,37.716 42.000,36.750 L42.000,35.000 ZM42.000,43.750 C42.000,42.783 41.216,42.000 40.250,42.000 L38.500,42.000 C37.533,42.000 36.750,42.783 36.750,43.750 L36.750,45.500 C36.750,46.466 37.533,47.250 38.500,47.250 L40.250,47.250 C41.216,47.250 42.000,46.466 42.000,45.500 L42.000,43.750 ZM50.750,35.000 C50.750,34.033 49.966,33.250 49.000,33.250 L47.250,33.250 C46.283,33.250 45.500,34.033 45.500,35.000 L45.500,36.750 C45.500,37.716 46.283,38.500 47.250,38.500 L49.000,38.500 C49.966,38.500 50.750,37.716 50.750,36.750 L50.750,35.000 ZM50.750,43.750 C50.750,42.783 49.966,42.000 49.000,42.000 L47.250,42.000 C46.283,42.000 45.500,42.783 45.500,43.750 L45.500,45.500 C45.500,46.466 46.283,47.250 47.250,47.250 L49.000,47.250 C49.966,47.250 50.750,46.466 50.750,45.500 L50.750,43.750 ZM22.750,50.750 C22.750,49.783 21.966,49.000 21.000,49.000 L17.500,49.000 C16.533,49.000 15.750,49.783 15.750,50.750 L15.750,56.000 L12.250,56.000 L12.250,50.750 C12.250,49.783 11.466,49.000 10.500,49.000 L7.000,49.000 C6.033,49.000 5.250,49.783 5.250,50.750 L5.250,56.000 L0.000,56.000 L0.000,3.500 C0.000,1.567 1.567,-0.000 3.500,-0.000 L24.500,-0.000 C26.433,-0.000 28.000,1.567 28.000,3.500 L28.000,56.000 L22.750,56.000 L22.750,50.750 ZM12.250,8.750 C12.250,7.783 11.466,7.000 10.500,7.000 L7.000,7.000 C6.033,7.000 5.250,7.783 5.250,8.750 L5.250,12.250 C5.250,13.216 6.033,14.000 7.000,14.000 L10.500,14.000 C11.466,14.000 12.250,13.216 12.250,12.250 L12.250,8.750 ZM12.250,19.250 C12.250,18.283 11.466,17.500 10.500,17.500 L7.000,17.500 C6.033,17.500 5.250,18.283 5.250,19.250 L5.250,22.750 C5.250,23.716 6.033,24.500 7.000,24.500 L10.500,24.500 C11.466,24.500 12.250,23.716 12.250,22.750 L12.250,19.250 ZM12.250,29.750 C12.250,28.783 11.466,28.000 10.500,28.000 L7.000,28.000 C6.033,28.000 5.250,28.783 5.250,29.750 L5.250,33.250 C5.250,34.216 6.033,35.000 7.000,35.000 L10.500,35.000 C11.466,35.000 12.250,34.216 12.250,33.250 L12.250,29.750 ZM12.250,40.250 C12.250,39.283 11.466,38.500 10.500,38.500 L7.000,38.500 C6.033,38.500 5.250,39.283 5.250,40.250 L5.250,43.750 C5.250,44.716 6.033,45.500 7.000,45.500 L10.500,45.500 C11.466,45.500 12.250,44.716 12.250,43.750 L12.250,40.250 ZM22.750,8.750 C22.750,7.783 21.966,7.000 21.000,7.000 L17.500,7.000 C16.533,7.000 15.750,7.783 15.750,8.750 L15.750,12.250 C15.750,13.216 16.533,14.000 17.500,14.000 L21.000,14.000 C21.966,14.000 22.750,13.216 22.750,12.250 L22.750,8.750 ZM22.750,19.250 C22.750,18.283 21.966,17.500 21.000,17.500 L17.500,17.500 C16.533,17.500 15.750,18.283 15.750,19.250 L15.750,22.750 C15.750,23.716 16.533,24.500 17.500,24.500 L21.000,24.500 C21.966,24.500 22.750,23.716 22.750,22.750 L22.750,19.250 ZM22.750,29.750 C22.750,28.783 21.966,28.000 21.000,28.000 L17.500,28.000 C16.533,28.000 15.750,28.783 15.750,29.750 L15.750,33.250 C15.750,34.216 16.533,35.000 17.500,35.000 L21.000,35.000 C21.966,35.000 22.750,34.216 22.750,33.250 L22.750,29.750 ZM22.750,40.250 C22.750,39.283 21.966,38.500 21.000,38.500 L17.500,38.500 C16.533,38.500 15.750,39.283 15.750,40.250 L15.750,43.750 C15.750,44.716 16.533,45.500 17.500,45.500 L21.000,45.500 C21.966,45.500 22.750,44.716 22.750,43.750 L22.750,40.250 Z" class="cls-1"/>
</svg>
