<svg xmlns="http://www.w3.org/2000/svg" xmlns:xlink="http://www.w3.org/1999/xlink" preserveAspectRatio="xMidYMid" width="48.062" height="45" viewBox="0 0 48.062 45">
  <defs>
    <style>
      .cls-1 {
        fill: #fff;
        fill-rule: evenodd;
      }
    </style>
  </defs>
  <path d="M47.984,12.000 C47.984,16.970 43.963,21.000 39.002,21.000 C38.644,21.000 38.302,20.943 37.958,20.895 C35.947,26.780 31.211,32.083 25.528,32.891 L25.528,42.000 L30.019,42.000 C30.846,42.000 31.516,42.671 31.516,43.500 C31.516,44.329 30.846,45.000 30.019,45.000 L18.043,45.000 C17.216,45.000 16.546,44.329 16.546,43.500 C16.546,42.671 17.216,42.000 18.043,42.000 L22.534,42.000 L22.534,32.891 C16.851,32.083 12.115,26.780 10.104,20.895 C9.760,20.943 9.418,21.000 9.060,21.000 C4.100,21.000 0.078,16.970 0.078,12.000 C0.078,5.998 -1.194,6.000 9.060,6.000 C9.060,2.686 11.741,-0.000 15.049,-0.000 L33.014,-0.000 C36.321,-0.000 39.002,2.686 39.002,6.000 C49.256,6.000 47.984,5.998 47.984,12.000 ZM9.060,9.000 C3.133,9.000 3.072,8.686 3.072,12.000 C3.072,15.314 5.753,18.000 9.060,18.000 L9.060,9.000 ZM39.002,9.000 L39.002,18.000 C42.309,18.000 44.990,15.314 44.990,12.000 C44.990,8.686 44.929,9.000 39.002,9.000 Z" class="cls-1"/>
</svg>
