<svg xmlns="http://www.w3.org/2000/svg" xmlns:xlink="http://www.w3.org/1999/xlink" preserveAspectRatio="xMidYMid" width="38.38" height="38.375" viewBox="0 0 38.38 38.375">
  <defs>
    <style>
      .cls-1 {
        fill: #2e3748;
        fill-rule: evenodd;
      }
    </style>
  </defs>
  <path d="M35.190,38.375 L35.190,35.187 L32.002,35.187 L32.002,32.000 L35.190,32.000 L38.377,32.000 L38.377,35.187 L38.377,38.375 L35.190,38.375 ZM28.784,38.375 L28.784,35.187 L32.002,35.187 L32.002,38.375 L28.784,38.375 ZM22.377,35.187 L22.377,32.000 L25.596,32.000 L28.784,32.000 L28.784,35.187 L25.596,35.187 L22.377,35.187 ZM19.190,38.375 L19.190,35.187 L22.377,35.187 L22.377,38.375 L19.190,38.375 ZM19.190,28.781 L22.377,28.781 L22.377,32.000 L19.190,32.000 L19.190,28.781 ZM32.002,28.781 L32.002,25.594 L35.190,25.594 L38.377,25.594 L38.377,28.781 L35.190,28.781 L32.002,28.781 ZM28.784,22.375 L32.002,22.375 L32.002,25.594 L28.784,25.594 L28.784,22.375 ZM35.190,19.187 L35.190,22.375 L32.002,22.375 L32.002,19.187 L35.190,19.187 ZM27.190,20.781 L27.190,24.000 L27.190,27.187 L24.002,27.187 L20.784,27.187 L20.784,24.000 L20.784,20.781 L24.002,20.781 L27.190,20.781 ZM30.377,30.375 L27.190,30.375 L27.190,27.187 L30.377,27.187 L30.377,30.375 ZM17.596,20.781 L17.596,17.594 L20.784,17.594 L20.784,20.781 L17.596,20.781 ZM0.002,38.375 L0.002,20.781 L17.596,20.781 L17.596,38.375 L0.002,38.375 ZM14.377,24.000 L3.190,24.000 L3.190,35.187 L14.377,35.187 L14.377,24.000 ZM11.190,32.000 L6.377,32.000 L6.377,27.187 L11.190,27.187 L11.190,32.000 ZM0.002,-0.000 L17.596,-0.000 L17.596,17.594 L0.002,17.594 L0.002,-0.000 ZM3.190,14.375 L14.377,14.375 L14.377,3.187 L3.190,3.187 L3.190,14.375 ZM6.377,6.375 L11.190,6.375 L11.190,11.187 L6.377,11.187 L6.377,6.375 ZM20.784,-0.000 L38.377,-0.000 L38.377,17.594 L20.784,17.594 L20.784,-0.000 ZM24.002,14.375 L35.190,14.375 L35.190,3.187 L24.002,3.187 L24.002,14.375 ZM27.190,6.375 L32.002,6.375 L32.002,11.187 L27.190,11.187 L27.190,6.375 Z" class="cls-1"/>
</svg>
