<svg xmlns="http://www.w3.org/2000/svg" xmlns:xlink="http://www.w3.org/1999/xlink" preserveAspectRatio="xMidYMid" width="16" height="20" viewBox="0 0 16 20">
  <defs>
    <style>
      .cls-1 {
        fill: #fff;
        fill-rule: evenodd;
      }
    </style>
  </defs>
  <path d="M14.225,20.004 L1.775,20.004 C0.792,20.004 -0.004,19.225 -0.004,18.264 L-0.004,9.565 C-0.004,8.604 0.792,7.825 1.775,7.825 L2.664,7.825 L2.664,5.215 C2.664,2.333 5.053,-0.004 8.000,-0.004 C10.947,-0.004 13.336,2.333 13.336,5.215 L13.336,7.825 L14.225,7.825 C15.207,7.825 16.004,8.604 16.004,9.565 L16.004,18.264 C16.004,19.225 15.207,20.004 14.225,20.004 ZM11.557,5.215 C11.557,3.294 9.965,1.736 8.000,1.736 C6.035,1.736 4.443,3.294 4.443,5.215 L4.443,7.825 L11.557,7.825 L11.557,5.215 ZM14.225,10.435 C14.225,9.954 13.827,9.565 13.336,9.565 L2.664,9.565 C2.173,9.565 1.775,9.954 1.775,10.435 L1.775,17.394 C1.775,17.875 2.173,18.264 2.664,18.264 L13.336,18.264 C13.827,18.264 14.225,17.875 14.225,17.394 L14.225,10.435 Z" class="cls-1"/>
</svg>
