<svg xmlns="http://www.w3.org/2000/svg" xmlns:xlink="http://www.w3.org/1999/xlink" preserveAspectRatio="xMidYMid" width="200" height="180" viewBox="0 0 20 18">
  <defs>
    <style>
      .cls-1 {
        fill: #2e3748;
        fill-rule: evenodd;
      }
    </style>
  </defs>
  <path d="M18.461,14.957 L17.820,14.957 L17.820,9.126 L18.461,9.126 C19.311,9.126 20.000,9.807 20.000,10.647 L20.000,13.436 C20.000,14.276 19.311,14.957 18.461,14.957 ZM18.526,8.619 C17.987,8.619 17.877,7.857 17.877,7.857 C17.440,5.920 16.302,4.245 14.741,3.104 C14.558,3.225 14.339,3.295 14.103,3.295 C13.943,3.295 13.791,3.263 13.653,3.205 C13.653,3.205 12.638,2.281 9.872,2.281 C8.640,2.281 7.476,2.569 6.444,3.078 C6.254,3.214 6.021,3.295 5.769,3.295 C5.505,3.295 5.262,3.206 5.067,3.058 C3.446,4.219 2.270,5.950 1.843,7.956 C1.843,7.956 1.740,8.619 1.218,8.619 C0.899,8.619 0.641,8.363 0.641,8.049 C0.641,7.931 0.722,7.686 0.722,7.686 C1.236,5.315 2.669,3.281 4.633,1.966 C4.745,1.323 5.400,1.043 5.400,1.043 C6.746,0.377 8.264,-0.001 9.872,-0.001 C11.472,-0.001 12.983,0.374 14.325,1.035 C14.832,1.273 15.205,1.565 15.248,2.061 C17.110,3.357 18.474,5.306 18.995,7.573 C18.995,7.573 19.103,7.837 19.103,8.049 C19.103,8.363 18.844,8.619 18.526,8.619 ZM2.179,9.126 L2.179,14.957 L1.538,14.957 C0.689,14.957 -0.000,14.276 -0.000,13.436 L-0.000,10.647 C-0.000,9.807 0.689,9.126 1.538,9.126 L2.179,9.126 ZM3.333,8.492 L4.872,8.492 C5.155,8.492 5.385,8.719 5.385,8.999 L5.385,15.084 C5.385,15.364 5.155,15.590 4.872,15.590 L3.333,15.590 C3.050,15.590 2.820,15.364 2.820,15.084 L2.820,8.999 C2.820,8.719 3.050,8.492 3.333,8.492 ZM8.205,15.971 L11.538,15.971 C11.795,15.971 12.021,16.096 12.160,16.287 C13.084,16.039 13.922,15.676 14.638,15.225 C14.625,15.180 14.615,15.133 14.615,15.084 L14.615,8.999 C14.615,8.719 14.845,8.492 15.128,8.492 L16.667,8.492 C16.950,8.492 17.179,8.719 17.179,8.999 L17.179,15.084 C17.179,15.364 16.950,15.590 16.667,15.590 L15.691,15.590 C14.754,16.263 13.600,16.789 12.308,17.115 L12.308,17.239 C12.308,17.659 11.963,17.999 11.538,17.999 L8.205,17.999 C7.780,17.999 7.436,17.659 7.436,17.239 L7.436,16.732 C7.436,16.311 7.780,15.971 8.205,15.971 Z" class="cls-1"/>
</svg>
