<svg xmlns="http://www.w3.org/2000/svg" xmlns:xlink="http://www.w3.org/1999/xlink" preserveAspectRatio="xMidYMid" width="42" height="56" viewBox="0 0 42 56">
  <defs>
    <style>
      .cls-1 {
        fill: #ff8400;
        fill-rule: evenodd;
      }
    </style>
  </defs>
  <path d="M42.000,50.750 C42.000,53.649 39.649,56.000 36.750,56.000 L5.250,56.000 C2.350,56.000 -0.000,53.649 -0.000,50.750 L-0.000,14.000 L7.000,14.000 L7.000,19.250 L7.000,19.250 C7.000,22.149 9.350,24.500 12.250,24.500 L12.250,24.500 C12.592,24.500 12.924,24.462 13.247,24.399 C13.355,24.379 13.455,24.342 13.560,24.315 C13.771,24.260 13.980,24.202 14.180,24.122 C14.298,24.076 14.408,24.018 14.521,23.964 C14.697,23.879 14.868,23.790 15.032,23.686 C15.144,23.616 15.250,23.541 15.356,23.463 C15.506,23.351 15.649,23.233 15.787,23.107 C15.885,23.017 15.981,22.927 16.072,22.830 C16.200,22.692 16.316,22.546 16.430,22.396 C16.508,22.292 16.589,22.191 16.660,22.081 C16.769,21.911 16.860,21.731 16.949,21.548 C17.001,21.443 17.061,21.344 17.106,21.235 C17.225,20.942 17.323,20.639 17.389,20.323 C17.461,19.976 17.500,19.618 17.500,19.250 L17.500,14.000 L24.500,14.000 L24.500,19.250 C24.500,19.618 24.539,19.976 24.611,20.323 L24.611,20.323 C24.677,20.639 24.775,20.942 24.894,21.235 C24.939,21.344 24.999,21.443 25.051,21.548 C25.140,21.731 25.231,21.911 25.340,22.081 C25.411,22.191 25.492,22.292 25.570,22.396 C25.684,22.546 25.800,22.692 25.928,22.830 C26.019,22.927 26.115,23.017 26.213,23.107 C26.351,23.233 26.494,23.351 26.644,23.463 C26.750,23.541 26.856,23.616 26.968,23.686 C27.132,23.790 27.303,23.879 27.479,23.964 C27.592,24.018 27.702,24.076 27.820,24.122 C28.020,24.202 28.229,24.260 28.440,24.315 C28.545,24.342 28.645,24.379 28.753,24.399 C29.076,24.462 29.408,24.500 29.750,24.500 L29.750,24.500 L29.750,24.500 C32.649,24.500 35.000,22.149 35.000,19.250 L35.000,19.250 L35.000,14.000 L42.000,14.000 L42.000,50.750 ZM29.750,21.000 C28.784,21.000 28.000,20.216 28.000,19.250 L28.000,14.000 L28.000,10.500 C28.000,6.634 24.866,3.500 21.000,3.500 C17.134,3.500 14.000,6.634 14.000,10.500 L14.000,14.000 L14.000,19.250 C14.000,20.216 13.216,21.000 12.250,21.000 C11.283,21.000 10.500,20.216 10.500,19.250 L10.500,10.500 C10.500,4.701 15.201,-0.000 21.000,-0.000 C26.799,-0.000 31.500,4.701 31.500,10.500 L31.500,19.250 C31.500,20.216 30.716,21.000 29.750,21.000 Z" class="cls-1"/>
</svg>
