<svg xmlns="http://www.w3.org/2000/svg" xmlns:xlink="http://www.w3.org/1999/xlink" preserveAspectRatio="xMidYMid" width="20" height="15" viewBox="0 0 20 15">
  <defs>
    <style>
      .cls-1 {
        fill: #fff;
        fill-rule: evenodd;
      }
    </style>
  </defs>
  <path d="M16.000,15.000 L4.000,15.000 C1.791,15.000 -0.000,13.209 -0.000,11.000 L-0.000,4.000 C-0.000,1.791 1.791,-0.000 4.000,-0.000 L16.000,-0.000 C18.209,-0.000 20.000,1.791 20.000,4.000 L20.000,11.000 C20.000,13.209 18.209,15.000 16.000,15.000 ZM18.187,3.875 C18.187,2.770 17.292,1.875 16.187,1.875 L3.812,1.875 C2.708,1.875 1.812,2.770 1.812,3.875 L1.812,11.125 C1.812,12.230 2.708,13.125 3.812,13.125 L16.187,13.125 C17.292,13.125 18.187,12.230 18.187,11.125 L18.187,3.875 ZM15.437,8.437 L13.656,8.437 C13.138,8.437 12.719,8.018 12.719,7.500 C12.719,6.982 13.138,6.562 13.656,6.562 L15.437,6.562 C15.955,6.562 16.375,6.982 16.375,7.500 C16.375,8.018 15.955,8.437 15.437,8.437 ZM10.875,8.437 L9.125,8.437 C8.607,8.437 8.187,8.018 8.187,7.500 C8.187,6.982 8.607,6.562 9.125,6.562 L10.875,6.562 C11.393,6.562 11.812,6.982 11.812,7.500 C11.812,8.018 11.393,8.437 10.875,8.437 ZM6.344,8.437 L4.562,8.437 C4.045,8.437 3.625,8.018 3.625,7.500 C3.625,6.982 4.045,6.562 4.562,6.562 L6.344,6.562 C6.861,6.562 7.281,6.982 7.281,7.500 C7.281,8.018 6.861,8.437 6.344,8.437 Z" class="cls-1"/>
</svg>
