<svg xmlns="http://www.w3.org/2000/svg" xmlns:xlink="http://www.w3.org/1999/xlink" preserveAspectRatio="xMidYMid" width="53" height="54" viewBox="0 0 53 54">
  <defs>
    <style>
      .cls-1 {
        fill: #8f52ff;
        fill-rule: evenodd;
      }
    </style>
  </defs>
  <path d="M44.452,44.430 L44.452,54.000 L34.868,48.176 C33.540,48.390 32.175,48.516 30.774,48.516 C24.191,48.516 19.457,46.115 15.387,42.187 C15.387,42.187 18.555,42.187 20.516,42.187 C35.418,42.187 46.161,32.863 46.161,19.406 C46.161,18.128 46.175,18.254 46.161,16.875 L46.074,15.421 C50.332,18.918 53.000,23.845 53.000,29.321 C53.000,35.462 49.648,40.916 44.452,44.430 ZM22.226,38.812 C20.825,38.812 17.804,38.582 16.475,38.368 L6.839,43.875 L6.839,34.305 C2.371,30.551 -0.000,25.337 -0.000,19.195 C-0.000,8.594 9.934,0.000 22.226,0.000 C32.444,0.000 42.742,8.594 42.742,19.195 C42.742,29.797 34.501,38.812 22.226,38.812 ZM11.113,16.875 C9.697,16.875 8.548,18.009 8.548,19.406 C8.548,20.805 9.697,21.938 11.113,21.938 C12.529,21.938 13.678,20.805 13.678,19.406 C13.678,18.009 12.529,16.875 11.113,16.875 ZM21.371,16.875 C19.955,16.875 18.806,18.009 18.806,19.406 C18.806,20.805 19.955,21.938 21.371,21.938 C22.787,21.938 23.936,20.805 23.936,19.406 C23.936,18.009 22.787,16.875 21.371,16.875 ZM31.629,16.875 C30.213,16.875 29.065,18.009 29.065,19.406 C29.065,20.805 30.213,21.938 31.629,21.938 C33.045,21.938 34.194,20.805 34.194,19.406 C34.194,18.009 33.045,16.875 31.629,16.875 Z" class="cls-1"/>
</svg>
